# xmcd CD database file
#
# Track frame offsets:
#	150
#	10549
#	26449
#	37713
#	52571
#	66262
#	77505
#	97826
#	105247
#
# Disc length: 1531 seconds
#
# Revision: 0
# Processed by: cddbd v1.5.2PL0 Copyright (c) Steve Scherf et al.
# Submitted via: CDex 1.70beta2
#
DISCID=4905f909
DTITLE=The Underwater Bigband - 1 Sound Future
DYEAR=1900
DGENRE=Jazz
TTITLE0=opus one
TTITLE1=flashdance
TTITLE2=five foot two
TTITLE3=georgia on my mind
TTITLE4=yesterday
TTITLE5=twist and shout
TTITLE6=night train
TTITLE7=rock around the clock
TTITLE8=alexanders ragtime band
EXTD=
EXTT0=
EXTT1=
EXTT2=
EXTT3=
EXTT4=
EXTT5=
EXTT6=
EXTT7=
EXTT8=
PLAYORDER=
